<?xml version="1.0" standalone="no"?>
<!DOCTYPE svg PUBLIC "-//W3C//DTD SVG 20010904//EN"
 "http://www.w3.org/TR/2001/REC-SVG-20010904/DTD/svg10.dtd">
<svg version="1.0" xmlns="http://www.w3.org/2000/svg"
 width="512.000000pt" height="512.000000pt" viewBox="0 0 512.000000 512.000000"
 preserveAspectRatio="xMidYMid meet">

<g transform="translate(0.000000,512.000000) scale(0.100000,-0.100000)"
fill="#000000" stroke="none">
<path d="M2210 4930 c-178 -104 -333 -198 -342 -210 -19 -23 -22 -47 -12 -75
9 -22 61 -47 84 -40 10 3 154 84 320 180 l300 173 1040 -600 1040 -600 0
-1198 0 -1198 -672 -387 c-370 -214 -681 -395 -690 -403 -24 -20 -24 -84 0
-105 43 -39 56 -32 770 379 378 218 699 409 715 425 l27 29 0 1255 c0 893 -3
1261 -11 1278 -8 18 -189 127 -658 398 -355 205 -847 489 -1093 631 -248 143
-457 258 -470 257 -13 0 -169 -85 -348 -189z"/>
<path d="M1003 4233 c-464 -268 -654 -383 -662 -400 -8 -17 -11 -400 -11
-1278 l0 -1255 28 -29 c34 -36 2174 -1271 2203 -1271 22 0 530 289 567 323 32
29 30 79 -4 106 -15 12 -35 21 -46 21 -11 0 -131 -65 -268 -144 l-249 -144
-1041 600 -1040 601 0 1197 0 1197 623 359 c666 385 662 383 637 443 -11 27
-46 51 -73 51 -7 0 -305 -170 -664 -377z"/>
</g>
</svg>
